<svg xmlns="http://www.w3.org/2000/svg" xmlns:svg="http://www.w3.org/2000/svg" id="svg8" width="122" height="114" version="1.1" viewBox="0 0 32.279 30.163"><defs id="defs2"><symbol id="icon-bin" viewBox="0 0 32 32"><path id="path3713" d="m 4,10 v 20 c 0,1.1 0.9,2 2,2 h 18 c 1.1,0 2,-0.9 2,-2 V 10 Z m 6,18 H 8 V 14 h 2 z m 4,0 H 12 V 14 h 2 z m 4,0 H 16 V 14 h 2 z m 4,0 H 20 V 14 h 2 z"/><path id="path3715" d="M 26.5,4 H 20 V 1.5 C 20,0.675 19.325,0 18.5,0 h -7 C 10.675,0 10,0.675 10,1.5 V 4 H 3.5 C 2.675,4 2,4.675 2,5.5 V 8 H 28 V 5.5 C 28,4.675 27.325,4 26.5,4 Z M 18,4 H 12 V 2.025 h 6 z"/></symbol><symbol id="icon-plus" viewBox="0 0 32 32"><path id="path3718" d="M 31,12 H 20 V 1 C 20,0.448 19.552,0 19,0 H 13 C 12.448,0 12,0.448 12,1 V 12 H 1 c -0.552,0 -1,0.448 -1,1 v 6 c 0,0.552 0.448,1 1,1 h 11 v 11 c 0,0.552 0.448,1 1,1 h 6 c 0.552,0 1,-0.448 1,-1 V 20 h 11 c 0.552,0 1,-0.448 1,-1 v -6 c 0,-0.552 -0.448,-1 -1,-1 z"/></symbol><symbol id="icon-checkmark" viewBox="0 0 32 32"><path id="path3721" d="M 27,4 12,19 5,12 0,17 12,29 32,9 Z"/></symbol><symbol id="icon-checkmark2" viewBox="0 0 32 32"><path id="path3724" d="M 12.42,28.678 -0.013,16.44 6.155,10.369 12.42,16.536 25.846,3.322 32.014,9.393 Z M 3.372,16.441 12.42,25.346 28.628,9.393 25.846,6.654 12.42,19.868 6.155,13.701 3.373,16.44 Z"/></symbol><symbol id="icon-github" viewBox="0 0 32 32"><path id="path3727" d="m 16,0.395 c -8.836,0 -16,7.163 -16,16 0,7.069 4.585,13.067 10.942,15.182 0.8,0.148 1.094,-0.347 1.094,-0.77 0,-0.381 -0.015,-1.642 -0.022,-2.979 C 7.562,28.796 6.623,25.94 6.623,25.94 5.895,24.091 4.847,23.599 4.847,23.599 c -1.452,-0.993 0.11,-0.973 0.11,-0.973 1.606,0.113 2.452,1.649 2.452,1.649 1.427,2.446 3.743,1.739 4.656,1.33 0.143,-1.034 0.558,-1.74 1.016,-2.14 -3.554,-0.404 -7.29,-1.777 -7.29,-7.907 0,-1.747 0.625,-3.174 1.649,-4.295 -0.166,-0.403 -0.714,-2.03 0.155,-4.234 0,0 1.344,-0.43 4.401,1.64 1.276,-0.355 2.645,-0.532 4.005,-0.539 1.359,0.006 2.729,0.184 4.008,0.539 3.054,-2.07 4.395,-1.64 4.395,-1.64 0.871,2.204 0.323,3.831 0.157,4.234 1.026,1.12 1.647,2.548 1.647,4.295 0,6.145 -3.743,7.498 -7.306,7.895 0.574,0.497 1.085,1.47 1.085,2.963 0,2.141 -0.019,3.864 -0.019,4.391 0,0.426 0.288,0.925 1.099,0.768 C 27.421,29.457 32,23.462 32,16.395 c 0,-8.837 -7.164,-16 -16,-16 z"/></symbol></defs><metadata id="metadata5"/><g id="layer1" transform="translate(0,-266.83679)"><g id="g842" transform="translate(0.0638524,-0.16978106)"><g id="text4575" aria-label="I'LL" style="font-style:normal;font-weight:400;font-size:20.0037632px;line-height:1.25;font-family:sans-serif;letter-spacing:0;word-spacing:0;fill:#020126;fill-opacity:1;stroke:none;stroke-width:.50009406"><path id="path899" d="M 0.04905107,281.37027 V 267.09024 H 3.0769644 v 14.28003 z" style="font-style:normal;font-variant:normal;font-weight:700;font-stretch:normal;line-height:0;font-family:'open sans';-inkscape-font-specification:'open sans Bold';fill:#020126;fill-opacity:1;stroke-width:.50009406"/><path id="path901" d="m 8.9179068,267.09024 -0.4004659,5.15722 H 6.5932508 l -0.400466,-5.15722 z" style="font-style:normal;font-variant:normal;font-weight:700;font-stretch:normal;line-height:0;font-family:'open sans';-inkscape-font-specification:'open sans Bold';fill:#020126;fill-opacity:1;stroke-width:.50009406"/><path id="path903" d="m 12.004425,281.37027 v -14.28003 h 3.027913 v 11.77956 h 5.792105 v 2.50047 z" style="font-style:normal;font-variant:normal;font-weight:700;font-stretch:normal;line-height:0;font-family:'open sans';-inkscape-font-specification:'open sans Bold';fill:#020126;fill-opacity:1;stroke-width:.50009406"/><path id="path905" d="m 23.29561,281.37027 v -14.28003 h 3.027914 v 11.77956 h 5.792105 v 2.50047 z" style="font-style:normal;font-variant:normal;font-weight:700;font-stretch:normal;line-height:0;font-family:'open sans';-inkscape-font-specification:'open sans Bold';fill:#020126;fill-opacity:1;stroke-width:.50009406"/></g><g id="text4575-6" aria-label="DO" style="font-style:normal;font-weight:400;font-size:20.0037632px;line-height:1.25;font-family:sans-serif;letter-spacing:0;word-spacing:0;fill:#000;fill-opacity:1;stroke:none;stroke-width:.50009406"><path id="path894" d="m 10.952674,289.64795 q 0,3.59443 -1.8851206,5.44048 -1.8851202,1.83628 -5.5381512,1.83628 H 0.11079034 V 282.64468 H 3.968938 q 3.4186119,0 5.1962901,1.78745 1.7874459,1.78744 1.7874459,5.21582 z m -1.0841886,0.0391 q 0,-3.06698 -1.562794,-4.61024 -1.5530266,-1.55303 -4.5711725,-1.55303 H 1.1070715 v 12.52189 h 2.3637259 q 6.397688,0 6.397688,-6.35862 z" style="font-style:normal;font-variant:normal;font-weight:300;font-stretch:normal;line-height:0;font-family:'open sans';-inkscape-font-specification:'open sans Light';fill:#020126;fill-opacity:1;stroke-width:.50009406"/><path id="path896" d="m 26.258288,289.76516 q 0,3.39908 -1.699539,5.38187 -1.699538,1.97303 -4.688382,1.97303 -2.979076,0 -4.678615,-1.97303 -1.699538,-1.98279 -1.699538,-5.4014 0,-3.40885 1.709306,-5.36234 1.719073,-1.96326 4.688382,-1.96326 2.988843,0 4.678614,1.97303 1.689772,1.96326 1.689772,5.3721 z m -11.681886,0 q 0,3.06699 1.367445,4.74699 1.367445,1.67024 3.92652,1.67024 2.57861,0 3.936287,-1.66047 1.367445,-1.66047 1.367445,-4.75676 0,-3.08652 -1.367445,-4.72745 -1.357677,-1.6507 -3.916752,-1.6507 -2.549308,0 -3.936287,1.66047 -1.377213,1.66047 -1.377213,4.71768 z" style="font-style:normal;font-variant:normal;font-weight:300;font-stretch:normal;line-height:0;font-family:'open sans';-inkscape-font-specification:'open sans Light';fill:#020126;fill-opacity:1;stroke-width:.50009406"/></g></g></g></svg>