<svg xmlns="http://www.w3.org/2000/svg" xmlns:svg="http://www.w3.org/2000/svg" id="svg8" width="122" height="114" version="1.1" viewBox="0 0 32.279 30.163"><defs id="defs2"><symbol id="icon-bin" viewBox="0 0 32 32"><path id="path3713" d="m 4,10 v 20 c 0,1.1 0.9,2 2,2 h 18 c 1.1,0 2,-0.9 2,-2 V 10 Z m 6,18 H 8 V 14 h 2 z m 4,0 H 12 V 14 h 2 z m 4,0 H 16 V 14 h 2 z m 4,0 H 20 V 14 h 2 z"/><path id="path3715" d="M 26.5,4 H 20 V 1.5 C 20,0.675 19.325,0 18.5,0 h -7 C 10.675,0 10,0.675 10,1.5 V 4 H 3.5 C 2.675,4 2,4.675 2,5.5 V 8 H 28 V 5.5 C 28,4.675 27.325,4 26.5,4 Z M 18,4 H 12 V 2.025 h 6 z"/></symbol><symbol id="icon-plus" viewBox="0 0 32 32"><path id="path3718" d="M 31,12 H 20 V 1 C 20,0.448 19.552,0 19,0 H 13 C 12.448,0 12,0.448 12,1 V 12 H 1 c -0.552,0 -1,0.448 -1,1 v 6 c 0,0.552 0.448,1 1,1 h 11 v 11 c 0,0.552 0.448,1 1,1 h 6 c 0.552,0 1,-0.448 1,-1 V 20 h 11 c 0.552,0 1,-0.448 1,-1 v -6 c 0,-0.552 -0.448,-1 -1,-1 z"/></symbol><symbol id="icon-checkmark" viewBox="0 0 32 32"><path id="path3721" d="M 27,4 12,19 5,12 0,17 12,29 32,9 Z"/></symbol><symbol id="icon-checkmark2" viewBox="0 0 32 32"><path id="path3724" d="M 12.42,28.678 -0.013,16.44 6.155,10.369 12.42,16.536 25.846,3.322 32.014,9.393 Z M 3.372,16.441 12.42,25.346 28.628,9.393 25.846,6.654 12.42,19.868 6.155,13.701 3.373,16.44 Z"/></symbol><symbol id="icon-github" viewBox="0 0 32 32"><path id="path3727" d="m 16,0.395 c -8.836,0 -16,7.163 -16,16 0,7.069 4.585,13.067 10.942,15.182 0.8,0.148 1.094,-0.347 1.094,-0.77 0,-0.381 -0.015,-1.642 -0.022,-2.979 C 7.562,28.796 6.623,25.94 6.623,25.94 5.895,24.091 4.847,23.599 4.847,23.599 c -1.452,-0.993 0.11,-0.973 0.11,-0.973 1.606,0.113 2.452,1.649 2.452,1.649 1.427,2.446 3.743,1.739 4.656,1.33 0.143,-1.034 0.558,-1.74 1.016,-2.14 -3.554,-0.404 -7.29,-1.777 -7.29,-7.907 0,-1.747 0.625,-3.174 1.649,-4.295 -0.166,-0.403 -0.714,-2.03 0.155,-4.234 0,0 1.344,-0.43 4.401,1.64 1.276,-0.355 2.645,-0.532 4.005,-0.539 1.359,0.006 2.729,0.184 4.008,0.539 3.054,-2.07 4.395,-1.64 4.395,-1.64 0.871,2.204 0.323,3.831 0.157,4.234 1.026,1.12 1.647,2.548 1.647,4.295 0,6.145 -3.743,7.498 -7.306,7.895 0.574,0.497 1.085,1.47 1.085,2.963 0,2.141 -0.019,3.864 -0.019,4.391 0,0.426 0.288,0.925 1.099,0.768 C 27.421,29.457 32,23.462 32,16.395 c 0,-8.837 -7.164,-16 -16,-16 z"/></symbol></defs><metadata id="metadata5"/><g id="layer1" transform="translate(0,-266.83679)"><g id="g842" transform="translate(0.0638524,-0.16978106)"><g id="g3761" transform="translate(0.08894979,0.52917649)"><g id="g58"><g style="font-style:normal;font-weight:400;font-size:20.0037632px;line-height:1.25;font-family:sans-serif;letter-spacing:0;word-spacing:0;fill:#020126;fill-opacity:1;stroke:none;stroke-width:.50009406" id="text4575" aria-label="I'LL"><path style="font-style:normal;font-variant:normal;font-weight:700;font-stretch:normal;line-height:0;font-family:Nunito;-inkscape-font-specification:'Nunito Bold';fill:#020126;fill-opacity:1;stroke-width:.50009406" id="path65" d="m 1.8717256,281.32925 q -0.5801091,0 -0.94017686,-0.36007 -0.34006398,-0.36006 -0.34006398,-0.94017 V 268.2868 q 0,-0.58011 0.34006398,-0.92018 0.36006776,-0.36006 0.94017686,-0.36006 0.6001129,0 0.9401769,0.36006 0.3600677,0.34007 0.3600677,0.92018 v 11.74221 q 0,0.58011 -0.3600677,0.94017 -0.340064,0.36007 -0.9401769,0.36007 z"/><path style="font-style:normal;font-variant:normal;font-weight:700;font-stretch:normal;line-height:0;font-family:Nunito;-inkscape-font-specification:'Nunito Bold';fill:#020126;fill-opacity:1;stroke-width:.50009406" id="path67" d="m 7.1377165,273.02769 q -0.7201355,0 -0.8401581,-0.80015 l -0.4800903,-3.54067 q -0.040007,-0.28005 -0.040007,-0.38007 0,-0.62012 0.3600677,-0.96018 0.3800715,-0.34006 0.9801844,-0.34006 0.6201166,0 0.9801844,0.34006 0.3600677,0.34006 0.3600677,0.96018 0,0.10002 -0.040007,0.38007 l -0.4600866,3.54067 q -0.1200225,0.80015 -0.8201542,0.80015 z"/><path style="font-style:normal;font-variant:normal;font-weight:700;font-stretch:normal;line-height:0;font-family:Nunito;-inkscape-font-specification:'Nunito Bold';fill:#020126;fill-opacity:1;stroke-width:.50009406" id="path69" d="m 12.282435,281.20923 q -0.58011,0 -0.90017,-0.32006 -0.32006,-0.32006 -0.32006,-0.88017 v -11.7222 q 0,-0.58011 0.340064,-0.92018 0.360068,-0.36006 0.940177,-0.36006 0.600113,0 0.940177,0.36006 0.360068,0.34007 0.360068,0.92018 v 10.80203 h 5.621057 q 1.200226,0 1.200226,1.0602 0,1.0602 -1.200226,1.0602 z"/><path style="font-style:normal;font-variant:normal;font-weight:700;font-stretch:normal;line-height:0;font-family:Nunito;-inkscape-font-specification:'Nunito Bold';fill:#020126;fill-opacity:1;stroke-width:.50009406" id="path71" d="m 23.378271,281.20923 q -0.580109,0 -0.900169,-0.32006 -0.32006,-0.32006 -0.32006,-0.88017 v -11.7222 q 0,-0.58011 0.340064,-0.92018 0.360067,-0.36006 0.940177,-0.36006 0.600112,0 0.940176,0.36006 0.360068,0.34007 0.360068,0.92018 v 10.80203 h 5.621058 q 1.200225,0 1.200225,1.0602 0,1.0602 -1.200225,1.0602 z"/></g><g style="font-style:normal;font-weight:400;font-size:20.0037632px;line-height:1.25;font-family:sans-serif;letter-spacing:0;word-spacing:0;fill:#000;fill-opacity:1;stroke:none;stroke-width:.50009406" id="text4575-6" aria-label="DO" transform="scale(1,-1)"><path style="font-style:normal;font-variant:normal;font-weight:300;font-stretch:normal;line-height:0;font-family:Nunito;-inkscape-font-specification:'Nunito Light';fill:#020126;fill-opacity:1;stroke-width:.50009406" id="path60" d="m 1.1537245,-281.84854 c -0.74862065,0.0128 -0.67853504,-0.82478 -0.66012422,-1.34747 0.007508,-4.08653 -0.0150119,-8.17441 0.0112521,-12.26009 0.21247072,-0.72444 1.060125,-0.43582 1.6186733,-0.49509 2.2781012,0.0578 4.7045317,-0.28957 6.7857201,0.8604 2.0943282,1.08291 3.1107562,3.49162 3.1193372,5.76201 0.132123,2.36872 -0.596794,5.02864 -2.7023057,6.36919 -1.8896331,1.28749 -4.2374806,1.10466 -6.413263,1.11105 -0.5864299,0 -1.1728599,0 -1.7592898,0 z m 3.8207187,-1.0802 c 1.9213701,0.0546 4.0950328,-0.62998 5.0170376,-2.45466 0.9149412,-1.837 0.9205702,-4.03505 0.4275802,-5.99329 -0.426633,-1.70729 -1.9096681,-3.02411 -3.6344335,-3.3182 -1.6656548,-0.30058 -3.3672219,-0.13153 -5.0507939,-0.1761 0,3.98075 0,7.9615 0,11.94225 1.0802032,0 2.1604064,0 3.2406096,0 z"/><path style="font-style:normal;font-variant:normal;font-weight:300;font-stretch:normal;line-height:0;font-family:Nunito;-inkscape-font-specification:'Nunito Light';fill:#020126;fill-opacity:1;stroke-width:.50009406" id="path62" d="m 20.846804,-281.68851 c -2.218777,0.0826 -4.467683,-1.11807 -5.423443,-3.16098 -1.061472,-2.24036 -1.112076,-4.91066 -0.355926,-7.25239 0.66935,-2.11989 2.611455,-3.7605 4.841693,-3.95433 2.419526,-0.36124 5.12296,0.66509 6.278368,2.91242 1.149176,2.20529 1.210924,4.87817 0.532913,7.23824 -0.621155,2.21823 -2.616339,3.97954 -4.935929,4.16328 -0.311091,0.037 -0.624445,0.0538 -0.937676,0.0538 z m 0,-1.10021 c 1.800657,0.0814 3.60919,-0.93041 4.338902,-2.6049 0.859791,-1.94374 0.868575,-4.21327 0.309433,-6.24108 -0.494663,-1.76562 -2.06075,-3.21288 -3.925055,-3.33725 -1.81951,-0.25338 -3.862946,0.4275 -4.798558,2.09307 -1.095037,1.92219 -1.111878,4.29692 -0.639965,6.40697 0.393444,1.74712 1.770829,3.30825 3.591281,3.58317 0.370228,0.07 0.747391,0.10001 1.123962,0.10002 z"/></g></g></g></g></g></svg>