<svg width="0" height="0" class="hidden"><symbol xmlns="http://www.w3.org/2000/svg" id="brightness-contrast" viewBox="0 0 512 512"><title/><path d="M256 128c-70.692 0-128 57.308-128 128s57.308 128 128 128 128-57.308 128-128-57.308-128-128-128zm0 208V176c44.112 0 80 35.888 80 80s-35.888 80-80 80zm0 80c17.673 0 32 14.327 32 32v32c0 17.673-14.327 32-32 32s-32-14.327-32-32v-32c0-17.673 14.327-32 32-32zm0-320c-17.673 0-32-14.327-32-32V32c0-17.673 14.327-32 32-32s32 14.327 32 32v32c0 17.673-14.327 32-32 32zm224 128c17.673 0 32 14.327 32 32s-14.327 32-32 32h-32c-17.673 0-32-14.327-32-32s14.327-32 32-32h32zM96 256c0 17.673-14.327 32-32 32H32c-17.673 0-32-14.327-32-32s14.327-32 32-32h32c17.673 0 32 14.327 32 32zm318.392 113.137l22.628 22.628c12.496 12.496 12.496 32.758 0 45.255-12.497 12.496-32.759 12.496-45.255 0l-22.628-22.628c-12.496-12.496-12.496-32.758 0-45.255 12.497-12.496 32.759-12.496 45.255 0zM97.608 142.863L74.98 120.235c-12.497-12.497-12.497-32.758 0-45.255s32.758-12.497 45.255 0l22.628 22.628c12.497 12.497 12.497 32.758 0 45.255s-32.758 12.497-45.255 0zm316.784 0c-12.496 12.496-32.758 12.496-45.255 0-12.496-12.497-12.496-32.758 0-45.255l22.628-22.627c12.496-12.497 32.758-12.497 45.255 0 12.496 12.497 12.496 32.758 0 45.255l-22.628 22.627zM97.608 369.137c12.496-12.496 32.758-12.496 45.254 0 12.497 12.497 12.497 32.759 0 45.255l-22.627 22.628c-12.497 12.496-32.758 12.496-45.255 0-12.497-12.497-12.497-32.759 0-45.255l22.628-22.628z"/></symbol><symbol xmlns="http://www.w3.org/2000/svg" id="checkmark" viewBox="0 0 512 512"><title/><path d="M432 64L192 304 80 192 0 272l192 192 320-320z"/></symbol><symbol xmlns="http://www.w3.org/2000/svg" id="cross" viewBox="0 0 512 512"><title/><path d="M507.331 411.33l-.006-.005L352.003 256l155.322-155.325.006-.005a15.881 15.881 0 0 0 3.656-5.708c2.123-5.688.912-12.341-3.662-16.915L433.952 4.674c-4.574-4.573-11.225-5.783-16.914-3.66a15.913 15.913 0 0 0-5.709 3.655c0 .002-.002.003-.004.005L256.001 160 100.677 4.675l-.005-.005a15.897 15.897 0 0 0-5.707-3.655c-5.69-2.124-12.341-.913-16.915 3.66L4.676 78.049C.102 82.623-1.108 89.275 1.015 94.963a15.908 15.908 0 0 0 3.656 5.708l.005.005L160.001 256 4.676 411.326l-.004.005a15.93 15.93 0 0 0-3.657 5.707c-2.124 5.688-.913 12.341 3.661 16.915l73.374 73.373c4.575 4.574 11.226 5.784 16.915 3.661a15.917 15.917 0 0 0 5.708-3.656l.005-.005 155.324-155.325 155.324 155.325.006.004a15.91 15.91 0 0 0 5.707 3.657c5.689 2.123 12.342.913 16.914-3.661l73.373-73.374c4.574-4.574 5.785-11.227 3.662-16.915a15.902 15.902 0 0 0-3.657-5.707z"/></symbol><symbol xmlns="http://www.w3.org/2000/svg" id="ill-do" viewBox="0 0 32 30"><path d="M.113 14.364V.084H3.14v14.28zM8.982.084l-.4 5.157H6.656l-.4-5.157zm3.086 14.28V.084h3.028v11.78h5.792v2.5zm11.292 0V.084h3.027v11.78h5.792v2.5z"/><path d="M11.017 22.641q0 3.595-1.886 5.44-1.885 1.837-5.538 1.837H.175v-14.28h3.858q3.418 0 5.196 1.788 1.788 1.787 1.788 5.215zm-1.085.04q0-3.068-1.562-4.61-1.553-1.554-4.572-1.554H1.171V29.04h2.364q6.397 0 6.397-6.359zm16.39.078q0 3.399-1.7 5.381-1.699 1.973-4.688 1.973-2.979 0-4.678-1.973-1.7-1.982-1.7-5.4 0-3.41 1.71-5.363 1.718-1.964 4.688-1.964 2.989 0 4.678 1.973 1.69 1.964 1.69 5.373zm-11.682 0q0 3.067 1.368 4.747 1.367 1.67 3.926 1.67 2.579 0 3.937-1.66 1.367-1.661 1.367-4.757 0-3.087-1.367-4.728-1.358-1.65-3.917-1.65-2.55 0-3.937 1.66-1.377 1.66-1.377 4.718z"/></symbol></svg>