<svg width="0" height="0" class="hidden">
  <symbol xmlns="http://www.w3.org/2000/svg" viewBox="0 0 512 512" id="bell">
    <title></title>
    <path d="M512.75 400c0-144-128-112-128-224 0-9.28-.894-17.21-2.524-23.964-8.415-56.509-46.078-101.86-94.886-115.68.433-1.974.66-4.016.66-6.105C288 13.612 273.6 0 256 0s-32 13.612-32 30.25c0 2.09.228 4.132.66 6.105-54.735 15.499-95.457 70.649-96.627 136.721-.02.96-.033 1.932-.033 2.923C128 288 0 256 0 400c0 38.113 85.295 69.998 199.485 78.04C210.247 498.242 231.513 512 256 512s45.754-13.758 56.515-33.96C426.705 469.998 512 438.113 512 400c0-.114-.013-.228-.014-.341l.764.341zm-99.627 27.048c-27.115 7.235-59.079 12.438-93.384 15.324C316.887 409.663 289.448 384 256 384s-60.887 25.663-63.739 58.372c-34.304-2.886-66.269-8.089-93.384-15.324-37.315-9.957-55.155-21.095-61.684-27.048 6.529-5.953 24.369-17.091 61.684-27.048C142.263 361.376 198.063 355 256 355s113.737 6.376 157.123 17.952c37.315 9.957 55.155 21.095 61.684 27.048-6.529 5.953-24.369 17.091-61.684 27.048z"></path>
  </symbol>
  <symbol xmlns="http://www.w3.org/2000/svg" viewBox="0 0 512 512" id="bin">
    <title></title>
    <path d="M64 160v320c0 17.6 14.4 32 32 32h288c17.6 0 32-14.4 32-32V160H64zm96 288h-32V224h32v224zm64 0h-32V224h32v224zm64 0h-32V224h32v224zm64 0h-32V224h32v224zm72-384H320V24c0-13.2-10.8-24-24-24H184c-13.2 0-24 10.8-24 24v40H56c-13.2 0-24 10.8-24 24v40h416V88c0-13.2-10.8-24-24-24zm-136 0h-96V32.401h96V64z"></path>
  </symbol>
  <symbol xmlns="http://www.w3.org/2000/svg" viewBox="0 0 512 512" id="brightness-contrast">
    <title></title>
    <path d="M256 128c-70.692 0-128 57.308-128 128s57.308 128 128 128 128-57.308 128-128-57.308-128-128-128zm0 208V176c44.112 0 80 35.888 80 80s-35.888 80-80 80zm0 80c17.673 0 32 14.327 32 32v32c0 17.673-14.327 32-32 32s-32-14.327-32-32v-32c0-17.673 14.327-32 32-32zm0-320c-17.673 0-32-14.327-32-32V32c0-17.673 14.327-32 32-32s32 14.327 32 32v32c0 17.673-14.327 32-32 32zm224 128c17.673 0 32 14.327 32 32s-14.327 32-32 32h-32c-17.673 0-32-14.327-32-32s14.327-32 32-32h32zM96 256c0 17.673-14.327 32-32 32H32c-17.673 0-32-14.327-32-32s14.327-32 32-32h32c17.673 0 32 14.327 32 32zm318.392 113.137l22.628 22.628c12.496 12.496 12.496 32.758 0 45.255-12.497 12.496-32.759 12.496-45.255 0l-22.628-22.628c-12.496-12.496-12.496-32.758 0-45.255 12.497-12.496 32.759-12.496 45.255 0zM97.608 142.863L74.98 120.235c-12.497-12.497-12.497-32.758 0-45.255s32.758-12.497 45.255 0l22.628 22.628c12.497 12.497 12.497 32.758 0 45.255s-32.758 12.497-45.255 0zm316.784 0c-12.496 12.496-32.758 12.496-45.255 0-12.496-12.497-12.496-32.758 0-45.255l22.628-22.627c12.496-12.497 32.758-12.497 45.255 0 12.496 12.497 12.496 32.758 0 45.255l-22.628 22.627zM97.608 369.137c12.496-12.496 32.758-12.496 45.254 0 12.497 12.497 12.497 32.759 0 45.255l-22.627 22.628c-12.497 12.496-32.758 12.496-45.255 0-12.497-12.497-12.497-32.759 0-45.255l22.628-22.628z"></path>
  </symbol>
  <symbol xmlns="http://www.w3.org/2000/svg" viewBox="0 0 512 512" id="checkmark">
    <title></title>
    <path d="M432 64L192 304 80 192 0 272l192 192 320-320z"></path>
  </symbol>
  <symbol xmlns="http://www.w3.org/2000/svg" viewBox="0 0 512 512" id="cross">
    <title></title>
    <path d="M507.331 411.33l-.006-.005L352.003 256l155.322-155.325.006-.005a15.881 15.881 0 0 0 3.656-5.708c2.123-5.688.912-12.341-3.662-16.915L433.952 4.674c-4.574-4.573-11.225-5.783-16.914-3.66a15.913 15.913 0 0 0-5.709 3.655c0 .002-.002.003-.004.005L256.001 160 100.677 4.675l-.005-.005a15.897 15.897 0 0 0-5.707-3.655c-5.69-2.124-12.341-.913-16.915 3.66L4.676 78.049C.102 82.623-1.108 89.275 1.015 94.963a15.908 15.908 0 0 0 3.656 5.708l.005.005L160.001 256 4.676 411.326l-.004.005a15.93 15.93 0 0 0-3.657 5.707c-2.124 5.688-.913 12.341 3.661 16.915l73.374 73.373c4.575 4.574 11.226 5.784 16.915 3.661a15.917 15.917 0 0 0 5.708-3.656l.005-.005 155.324-155.325 155.324 155.325.006.004a15.91 15.91 0 0 0 5.707 3.657c5.689 2.123 12.342.913 16.914-3.661l73.373-73.374c4.574-4.574 5.785-11.227 3.662-16.915a15.902 15.902 0 0 0-3.657-5.707z"></path>
  </symbol>
  <symbol xmlns="http://www.w3.org/2000/svg" viewBox="0 0 32 30" id="ill-do">
      <path d="M.113 14.364V.084H3.14v14.28zM8.982.084l-.4 5.157H6.656l-.4-5.157zm3.086 14.28V.084h3.028v11.78h5.792v2.5zm11.292 0V.084h3.027v11.78h5.792v2.5z"></path>
      <path d="M11.017 22.641q0 3.595-1.886 5.44-1.885 1.837-5.538 1.837H.175v-14.28h3.858q3.418 0 5.196 1.788 1.788 1.787 1.788 5.215zm-1.085.04q0-3.068-1.562-4.61-1.553-1.554-4.572-1.554H1.171V29.04h2.364q6.397 0 6.397-6.359zm16.39.078q0 3.399-1.7 5.381-1.699 1.973-4.688 1.973-2.979 0-4.678-1.973-1.7-1.982-1.7-5.4 0-3.41 1.71-5.363 1.718-1.964 4.688-1.964 2.989 0 4.678 1.973 1.69 1.964 1.69 5.373zm-11.682 0q0 3.067 1.368 4.747 1.367 1.67 3.926 1.67 2.579 0 3.937-1.66 1.367-1.661 1.367-4.757 0-3.087-1.367-4.728-1.358-1.65-3.917-1.65-2.55 0-3.937 1.66-1.377 1.66-1.377 4.718z"></path>
  </symbol>
</svg>